<svg width="192" height="40" viewBox="0 0 192 40" fill="none" xmlns="http://www.w3.org/2000/svg">
<path d="M23.3415 26.024H29.9512L35.5366 0.146484H24.9268L17.4634 15.876L16.7561 0.146484H6.14635L0.560982 26.024H7.17074L11.439 6.28364L12.2439 26.024H18.2439L27.5854 6.28364L23.3415 26.024Z" fill="#E9642F"/>
<path d="M54.561 10.222H44.439L45.4146 5.70375H57.2683L58.4634 0.146484H38.5122L32.9268 26.024H41.0244L43.3171 15.441H53.439L54.561 10.222Z" fill="#E9642F"/>
<path d="M80.6342 0.774697C79.4146 0.339781 77.5366 0.146484 75.0488 0.146484H61.6098L56.0244 26.024H64.122L66.3903 15.5135H67.0976C67.8293 15.5135 68.439 15.7068 68.9512 16.1176C69.3171 16.4317 69.6585 17.0841 69.9756 18.123L72.5854 26.024H81.7073L79.4146 18.5338C79.3171 18.1472 79.0488 17.6156 78.6342 16.9149C78.2195 16.2142 77.8781 15.7551 77.6342 15.5619C77.2683 15.2477 76.6342 14.9336 75.7317 14.6195C77 14.3537 78 14.0155 78.7805 13.6047C80 12.9524 81.0244 12.1067 81.8781 11.0677C82.7317 10.0287 83.2927 8.79649 83.6098 7.34677C83.9756 5.70375 83.8537 4.30235 83.2927 3.16674C82.7561 1.9828 81.8781 1.20961 80.6342 0.774697ZM75.3903 7.95082C75.2683 8.50654 75 9.01394 74.561 9.44886C74.122 9.88378 73.6342 10.1496 73.0732 10.2704C71.9756 10.512 71.2195 10.6328 70.8537 10.6328H67.439L68.5854 5.36548H72.122C73.5854 5.36548 74.561 5.58294 74.9756 6.04202C75.439 6.47693 75.561 7.12931 75.3903 7.95082Z" fill="#2EAA5F"/>
<path d="M105.244 23.4387C106.488 22.4239 107.512 21.2399 108.268 19.8869C109.024 18.5338 109.585 17.0841 109.927 15.5619L113.268 0.146484H105.22L101.805 15.9243C101.488 17.3498 100.854 18.4613 99.9024 19.2586C98.9512 20.0318 97.7805 20.4426 96.3902 20.4426C95 20.4426 93.9756 20.056 93.3659 19.2586C92.7561 18.4613 92.5854 17.374 92.9024 15.9484L96.3171 0.170646H88.2683L84.9268 15.586C84.6585 16.8666 84.5854 18.3163 84.7317 19.9593C84.8293 20.9741 85.1707 21.9648 85.8049 22.9313C86.439 23.8977 87.1951 24.6468 88.0976 25.1542C89 25.6857 90.1707 26.024 91.6342 26.1931C93.0976 26.3623 94.4634 26.4589 95.7317 26.4589C97.9268 26.4589 99.878 26.169 101.561 25.5891C102.78 25.1783 104 24.4535 105.244 23.4387Z" fill="#2EAA5F"/>
<path d="M136.976 11.0436C137.829 10.0046 138.39 8.77232 138.707 7.3226C139.073 5.67959 138.951 4.27819 138.39 3.14257C137.829 2.00696 136.927 1.20961 135.707 0.774697C134.488 0.339781 132.61 0.146484 130.122 0.146484H116.683L111.098 26.024H119.195L121.463 15.5135H122.171C122.902 15.5135 123.512 15.7068 124.024 16.1176C124.39 16.4317 124.732 17.0841 125.049 18.123L127.659 26.024H136.78L134.488 18.5338C134.39 18.1472 134.122 17.6156 133.707 16.9149C133.293 16.2142 132.951 15.7551 132.707 15.5619C132.341 15.2477 131.707 14.9336 130.805 14.6195C132.073 14.3537 133.073 14.0155 133.854 13.6047C135.098 12.9282 136.122 12.0825 136.976 11.0436ZM130.463 7.95082C130.341 8.50654 130.073 9.01394 129.634 9.44886C129.195 9.88378 128.707 10.1496 128.146 10.2704C127.049 10.512 126.293 10.6328 125.927 10.6328H122.512L123.659 5.36548H127.195C128.659 5.36548 129.634 5.58294 130.049 6.04202C130.512 6.47693 130.634 7.12931 130.463 7.95082Z" fill="#2EAA5F"/>
<path d="M148.512 21.7473H157.683L158.073 26.024H166.488L162.268 0.146484H153.463L138.049 26.024H146.293L148.512 21.7473ZM156.317 6.83936L157.195 16.1417H151.463L156.317 6.83936Z" fill="#2EAA5F"/>
<path d="M183.171 0.146484H175.098L169.512 26.024H190.171L191.537 19.6452H178.951L183.171 0.146484Z" fill="#2EAA5F"/>
<path d="M3.02439 33.7559C2.58537 33.7559 2.21951 33.8283 1.87805 33.9733C1.63415 34.07 1.39025 34.2391 1.19512 34.4566C0.975612 34.674 0.829271 34.9156 0.707319 35.1814C0.536588 35.5439 0.463417 36.0029 0.463417 36.5345C0.463417 37.3802 0.70732 38.0325 1.17073 38.5158C1.63415 38.999 2.2683 39.2406 3.04878 39.2406C3.82927 39.2406 4.46342 38.999 4.92683 38.5158C5.39025 38.0325 5.63415 37.3802 5.63415 36.5103C5.63415 35.6647 5.39025 34.9881 4.92683 34.5049C4.43903 33.9975 3.80488 33.7559 3.02439 33.7559ZM4.09756 37.8392C3.82927 38.1533 3.46342 38.2983 3.04878 38.2983C2.60976 38.2983 2.2683 38.1533 2 37.8392C1.73171 37.5251 1.58537 37.0902 1.58537 36.4862C1.58537 35.8821 1.73171 35.423 2 35.1331C2.2683 34.8432 2.63415 34.674 3.07317 34.674C3.5122 34.674 3.87805 34.819 4.14634 35.1089C4.41464 35.3989 4.53659 35.858 4.53659 36.462C4.5122 37.0661 4.36586 37.5251 4.09756 37.8392Z" fill="#828282"/>
<path d="M14.2195 33.8524L12.1463 39.1197H13.2927L13.7317 37.9358H15.8537L16.3171 39.1197H17.4878L15.3659 33.8524H14.2195ZM14.0488 37.0176L14.7561 35.0605L15.4878 37.0176H14.0488Z" fill="#828282"/>
<path d="M22.7561 37.1627H23.9756V37.8392C23.8049 37.9601 23.6098 38.0809 23.3902 38.1533C23.1707 38.25 22.9268 38.2742 22.7073 38.2742C22.2439 38.2742 21.8781 38.1292 21.6098 37.8151C21.3415 37.501 21.1951 37.0419 21.1951 36.4137C21.1951 35.8338 21.3415 35.3989 21.6098 35.1089C21.8781 34.819 22.2683 34.674 22.7317 34.674C23.0488 34.674 23.2927 34.7465 23.5122 34.8915C23.7073 35.0364 23.8537 35.2539 23.9268 35.4955L25 35.3022C24.9024 34.819 24.6585 34.4324 24.2927 34.1666C23.9268 33.9008 23.4146 33.7559 22.7561 33.7559C22.2439 33.7559 21.8293 33.8525 21.4878 34.0216C21.0488 34.2391 20.7073 34.5774 20.4634 35.0123C20.2195 35.4472 20.122 35.9304 20.122 36.462C20.122 36.9694 20.2195 37.4285 20.439 37.8634C20.6585 38.2983 20.9512 38.6124 21.3659 38.854C21.7805 39.0957 22.2683 39.1923 22.8293 39.1923C23.2683 39.1923 23.7073 39.1198 24.122 38.9507C24.5366 38.7816 24.8781 38.5883 25.0976 38.3708V36.2687H22.7805V37.1627H22.7561Z" fill="#828282"/>
<path d="M31.8049 37.2351C31.6585 37.066 31.4634 36.921 31.2195 36.8002C31.6829 36.7277 32.0488 36.5586 32.2683 36.317C32.5122 36.0512 32.6098 35.7371 32.6098 35.3505C32.6098 35.0364 32.5366 34.7706 32.3659 34.529C32.2195 34.2873 32 34.1182 31.7561 34.0216C31.4878 33.9249 31.0976 33.8766 30.5122 33.8766H28.2439V39.1439H29.3171V36.9452H29.5366C29.7805 36.9452 29.9512 36.9693 30.0732 36.9935C30.1951 37.0418 30.2927 37.1143 30.3902 37.2109C30.4878 37.3076 30.6829 37.5734 30.9512 37.9841L31.7317 39.1197H33.0244L32.3659 38.0808C32.1463 37.67 31.9512 37.3801 31.8049 37.2351ZM30.1463 36.0753H29.3415V34.7464H30.1707C30.6098 34.7464 30.8781 34.7464 30.9512 34.7706C31.122 34.7947 31.2683 34.8672 31.3659 34.988C31.4634 35.1089 31.5122 35.2297 31.5122 35.423C31.5122 35.5921 31.4878 35.7129 31.4146 35.8095C31.3415 35.9062 31.2439 35.9787 31.122 36.027C30.9756 36.0512 30.6585 36.0753 30.1463 36.0753Z" fill="#828282"/>
<path d="M38.2195 33.7559C37.7805 33.7559 37.4146 33.8283 37.0732 33.9733C36.8293 34.07 36.5854 34.2391 36.3902 34.4566C36.1707 34.674 36.0244 34.9156 35.9024 35.1814C35.7317 35.5439 35.6585 36.0029 35.6585 36.5345C35.6585 37.3802 35.9024 38.0325 36.3659 38.5158C36.8293 38.999 37.4634 39.2406 38.2439 39.2406C39.0244 39.2406 39.6585 38.999 40.122 38.5158C40.5854 38.0325 40.8293 37.3802 40.8293 36.5103C40.8293 35.6647 40.5854 34.9881 40.122 34.5049C39.6341 33.9975 39 33.7559 38.2195 33.7559ZM39.2927 37.8392C39.0244 38.1533 38.6585 38.2983 38.2439 38.2983C37.8049 38.2983 37.4634 38.1533 37.1951 37.8392C36.9268 37.5251 36.7805 37.0902 36.7805 36.4862C36.7805 35.8821 36.9268 35.423 37.1951 35.1331C37.4634 34.8432 37.8293 34.674 38.2683 34.674C38.7073 34.674 39.0732 34.819 39.3415 35.1089C39.6098 35.3989 39.7317 35.858 39.7317 36.462C39.7073 37.0661 39.561 37.5251 39.2927 37.8392Z" fill="#828282"/>
<path d="M47.0976 37.3559L44.9268 33.8524H43.8781V39.0956H44.878V35.6646L47.0244 39.0956H48.0976V33.8524H47.0976V37.3559Z" fill="#828282"/>
<path d="M52.5366 36.776H55.1951V35.9062H52.5366V34.7222H55.3902V33.8524H51.4634V39.0956H55.5122V38.2257H52.5366V36.776Z" fill="#828282"/>
<path d="M61.122 37.1627H62.3415V37.8392C62.1707 37.9601 61.9756 38.0809 61.7561 38.1533C61.5366 38.25 61.2927 38.2742 61.0732 38.2742C60.6098 38.2742 60.2439 38.1292 59.9756 37.8151C59.7073 37.501 59.561 37.0419 59.561 36.4137C59.561 35.8338 59.7073 35.3989 59.9756 35.1089C60.2439 34.819 60.6341 34.674 61.0976 34.674C61.4146 34.674 61.6585 34.7465 61.8781 34.8915C62.0732 35.0364 62.2195 35.2539 62.2927 35.4955L63.3659 35.3022C63.2683 34.819 63.0244 34.4324 62.6585 34.1666C62.2927 33.9008 61.7805 33.7559 61.122 33.7559C60.6098 33.7559 60.1951 33.8525 59.8537 34.0216C59.4146 34.2391 59.0732 34.5774 58.8293 35.0123C58.5854 35.4472 58.4878 35.9304 58.4878 36.462C58.4878 36.9694 58.5854 37.4285 58.8049 37.8634C59.0244 38.2983 59.3171 38.6124 59.7317 38.854C60.1463 39.0957 60.6341 39.1923 61.1951 39.1923C61.6341 39.1923 62.0732 39.1198 62.4878 38.9507C62.9024 38.7816 63.2439 38.5883 63.4634 38.3708V36.2687H61.122V37.1627Z" fill="#828282"/>
<path d="M68.8537 32.4752L68.3415 33.5383H69L69.9756 32.4752H68.8537Z" fill="#828282"/>
<path d="M69 33.7559C68.561 33.7559 68.1951 33.8283 67.8537 33.9733C67.6098 34.07 67.3659 34.2391 67.1707 34.4566C66.9512 34.674 66.8049 34.9156 66.6829 35.1814C66.5122 35.5439 66.439 36.0029 66.439 36.5345C66.439 37.3802 66.6829 38.0325 67.1463 38.5158C67.6098 38.999 68.2439 39.2406 69.0244 39.2406C69.8049 39.2406 70.439 38.999 70.9024 38.5158C71.3659 38.0325 71.6098 37.3802 71.6098 36.5103C71.6098 35.6647 71.3659 34.9881 70.9024 34.5049C70.4146 33.9975 69.7805 33.7559 69 33.7559ZM70.0488 37.8392C69.7805 38.1533 69.4146 38.2983 69 38.2983C68.561 38.2983 68.2195 38.1533 67.9512 37.8392C67.6829 37.5251 67.5366 37.0902 67.5366 36.4862C67.5366 35.8821 67.6829 35.423 67.9512 35.1331C68.2195 34.8432 68.5854 34.674 69.0244 34.674C69.4634 34.674 69.8293 34.819 70.0976 35.1089C70.3659 35.3989 70.4878 35.858 70.4878 36.462C70.4634 37.0661 70.3415 37.5251 70.0488 37.8392Z" fill="#828282"/>
<path d="M77.6098 38.0084C77.4146 38.1775 77.1707 38.2742 76.8781 38.2742C76.4878 38.2742 76.1707 38.1292 75.9268 37.8392C75.6829 37.5493 75.561 37.0902 75.561 36.4137C75.561 35.7855 75.6829 35.3264 75.9268 35.0606C76.1707 34.7707 76.4878 34.6499 76.8781 34.6499C77.1707 34.6499 77.4146 34.7223 77.6098 34.8915C77.8049 35.0606 77.9512 35.2539 78 35.5439L79.0732 35.3022C78.9512 34.8915 78.7805 34.5532 78.5366 34.3357C78.122 33.9492 77.6098 33.7559 76.9512 33.7559C76.1951 33.7559 75.6098 33.9975 75.1463 34.4807C74.6829 34.964 74.4634 35.6405 74.4634 36.5345C74.4634 37.356 74.6829 38.0084 75.1463 38.4916C75.6098 38.9749 76.1707 39.2165 76.8781 39.2165C77.439 39.2165 77.9268 39.0715 78.2927 38.8057C78.6585 38.5158 78.9268 38.105 79.0976 37.5251L78.0488 37.1869C77.9512 37.5493 77.8049 37.8392 77.6098 38.0084Z" fill="#828282"/>
<path d="M83.2683 33.8524H82.1951V39.1197H83.2683V33.8524Z" fill="#828282"/>
<path d="M88.8781 33.7559C88.439 33.7559 88.0732 33.8283 87.7317 33.9733C87.4878 34.07 87.2439 34.2391 87.0488 34.4566C86.8293 34.674 86.6829 34.9156 86.561 35.1814C86.3902 35.5439 86.3171 36.0029 86.3171 36.5345C86.3171 37.3802 86.561 38.0325 87.0244 38.5158C87.4878 38.999 88.122 39.2406 88.9024 39.2406C89.6829 39.2406 90.3171 38.999 90.7805 38.5158C91.2439 38.0325 91.4878 37.3802 91.4878 36.5103C91.4878 35.6647 91.2439 34.9881 90.7805 34.5049C90.2927 33.9975 89.6585 33.7559 88.8781 33.7559ZM89.9512 37.8392C89.6829 38.1533 89.3171 38.2983 88.9024 38.2983C88.4634 38.2983 88.122 38.1533 87.8537 37.8392C87.5854 37.5251 87.439 37.0902 87.439 36.4862C87.439 35.8821 87.5854 35.423 87.8537 35.1331C88.122 34.8432 88.4878 34.674 88.9268 34.674C89.3659 34.674 89.7317 34.819 90 35.1089C90.2683 35.3989 90.3903 35.858 90.3903 36.462C90.3415 37.0661 90.2195 37.5251 89.9512 37.8392Z" fill="#828282"/>
<path d="M101.805 33.9249C101.61 33.8766 101.171 33.8524 100.537 33.8524H98.8049V39.1197H99.8781V37.1384H100.585C101.073 37.1384 101.439 37.1143 101.707 37.066C101.902 37.0176 102.073 36.9452 102.268 36.8243C102.439 36.7035 102.61 36.5344 102.732 36.3169C102.854 36.0995 102.902 35.8337 102.902 35.4954C102.902 35.0847 102.805 34.7464 102.585 34.4806C102.366 34.1665 102.122 33.9974 101.805 33.9249ZM101.659 35.882C101.585 36.0028 101.463 36.0753 101.317 36.1478C101.171 36.1961 100.902 36.2203 100.463 36.2203H99.8781V34.7222H100.39C100.78 34.7222 101.024 34.7464 101.171 34.7706C101.341 34.7947 101.488 34.8914 101.61 35.0122C101.732 35.133 101.78 35.3021 101.78 35.4954C101.78 35.6404 101.732 35.7612 101.659 35.882Z" fill="#828282"/>
<path d="M106.976 33.8524L104.902 39.1197H106.049L106.488 37.9358H108.61L109.073 39.1197H110.244L108.122 33.8524H106.976ZM106.805 37.0176L107.512 35.0605L108.244 37.0176H106.805Z" fill="#828282"/>
<path d="M116.293 36.1962C116.049 36.0754 115.659 35.9304 115.122 35.8096C114.61 35.6888 114.268 35.568 114.146 35.4472C114.049 35.3505 113.976 35.2539 113.976 35.1331C113.976 34.9881 114.024 34.8915 114.146 34.7948C114.317 34.674 114.561 34.6015 114.878 34.6015C115.171 34.6015 115.415 34.6498 115.561 34.7707C115.707 34.8915 115.805 35.0848 115.854 35.3505L116.927 35.3022C116.902 34.819 116.732 34.4324 116.39 34.1424C116.049 33.8525 115.561 33.7075 114.878 33.7075C114.463 33.7075 114.122 33.78 113.829 33.9008C113.537 34.0216 113.317 34.1908 113.171 34.4324C113.024 34.674 112.951 34.9156 112.951 35.1814C112.951 35.5922 113.122 35.9546 113.439 36.2445C113.683 36.462 114.073 36.6311 114.659 36.7761C115.098 36.8969 115.39 36.9694 115.512 37.0177C115.707 37.0902 115.829 37.1627 115.902 37.2352C115.976 37.3318 116.024 37.4285 116.024 37.5493C116.024 37.7426 115.927 37.9117 115.756 38.0567C115.585 38.2017 115.317 38.2741 114.976 38.2741C114.659 38.2741 114.39 38.2017 114.195 38.0325C114 37.8634 113.878 37.6218 113.805 37.2593L112.756 37.356C112.829 37.9359 113.049 38.3949 113.39 38.7091C113.756 39.0232 114.268 39.1681 114.927 39.1681C115.39 39.1681 115.78 39.0956 116.073 38.9748C116.39 38.854 116.61 38.6607 116.78 38.395C116.951 38.1292 117.024 37.8392 117.024 37.5493C117.024 37.211 116.951 36.9452 116.805 36.7036C116.732 36.5103 116.537 36.317 116.293 36.1962Z" fill="#828282"/>
<path d="M123.463 36.1962C123.22 36.0754 122.829 35.9304 122.317 35.8096C121.805 35.6888 121.463 35.568 121.341 35.4472C121.244 35.3505 121.171 35.2539 121.171 35.1331C121.171 34.9881 121.22 34.8915 121.341 34.7948C121.512 34.674 121.756 34.6015 122.073 34.6015C122.366 34.6015 122.61 34.6498 122.756 34.7707C122.902 34.8915 123 35.0848 123.049 35.3505L124.122 35.3022C124.098 34.819 123.927 34.4324 123.585 34.1424C123.244 33.8525 122.756 33.7075 122.073 33.7075C121.659 33.7075 121.317 33.78 121.024 33.9008C120.732 34.0216 120.512 34.1908 120.366 34.4324C120.22 34.674 120.146 34.9156 120.146 35.1814C120.146 35.5922 120.317 35.9546 120.634 36.2445C120.878 36.462 121.268 36.6311 121.854 36.7761C122.293 36.8969 122.585 36.9694 122.707 37.0177C122.902 37.0902 123.024 37.1627 123.098 37.2352C123.171 37.3318 123.22 37.4285 123.22 37.5493C123.22 37.7426 123.122 37.9117 122.951 38.0567C122.78 38.2017 122.512 38.2741 122.171 38.2741C121.854 38.2741 121.585 38.2017 121.39 38.0325C121.195 37.8634 121.073 37.6218 121 37.2593L119.951 37.356C120.024 37.9359 120.244 38.3949 120.585 38.7091C120.951 39.0232 121.463 39.1681 122.122 39.1681C122.585 39.1681 122.976 39.0956 123.268 38.9748C123.585 38.854 123.805 38.6607 123.976 38.395C124.146 38.1292 124.22 37.8392 124.22 37.5493C124.22 37.211 124.146 36.9452 124 36.7036C123.902 36.5103 123.707 36.317 123.463 36.1962Z" fill="#828282"/>
<path d="M128.927 33.8524L126.854 39.1197H128L128.439 37.9358H130.561L131.024 39.1197H132.195L130.073 33.8524H128.927ZM128.756 37.0176L129.463 35.0605L130.195 37.0176H128.756Z" fill="#828282"/>
<path d="M142 33.9249C141.805 33.8766 141.366 33.8524 140.732 33.8524H139V39.1197H140.073V37.1384H140.78C141.268 37.1384 141.634 37.1143 141.902 37.066C142.098 37.0176 142.268 36.9452 142.463 36.8243C142.634 36.7035 142.805 36.5344 142.927 36.3169C143.049 36.0995 143.098 35.8337 143.098 35.4954C143.098 35.0847 143 34.7464 142.78 34.4806C142.561 34.1665 142.293 33.9974 142 33.9249ZM141.829 35.882C141.756 36.0028 141.634 36.0753 141.488 36.1478C141.341 36.1961 141.073 36.2203 140.634 36.2203H140.049V34.7222H140.561C140.951 34.7222 141.195 34.7464 141.341 34.7706C141.512 34.7947 141.659 34.8914 141.78 35.0122C141.902 35.133 141.951 35.3021 141.951 35.4954C141.951 35.6404 141.927 35.7612 141.829 35.882Z" fill="#828282"/>
<path d="M148.537 33.7559C148.098 33.7559 147.732 33.8283 147.39 33.9733C147.146 34.07 146.902 34.2391 146.707 34.4566C146.488 34.674 146.341 34.9156 146.22 35.1814C146.049 35.5439 145.976 36.0029 145.976 36.5345C145.976 37.3802 146.22 38.0325 146.683 38.5158C147.146 38.999 147.78 39.2406 148.561 39.2406C149.341 39.2406 149.976 38.999 150.439 38.5158C150.902 38.0325 151.146 37.3802 151.146 36.5103C151.146 35.6647 150.902 34.9881 150.439 34.5049C149.927 33.9975 149.317 33.7559 148.537 33.7559ZM149.585 37.8392C149.317 38.1533 148.951 38.2983 148.537 38.2983C148.098 38.2983 147.756 38.1533 147.488 37.8392C147.22 37.5251 147.073 37.0902 147.073 36.4862C147.073 35.8821 147.22 35.423 147.488 35.1331C147.756 34.8432 148.122 34.674 148.561 34.674C149 34.674 149.366 34.819 149.634 35.1089C149.902 35.3989 150.024 35.858 150.024 36.462C150 37.0661 149.854 37.5251 149.585 37.8392Z" fill="#828282"/>
<path d="M157.707 37.2351C157.561 37.066 157.366 36.921 157.122 36.8002C157.585 36.7277 157.951 36.5586 158.171 36.317C158.415 36.0512 158.512 35.7371 158.512 35.3505C158.512 35.0364 158.439 34.7706 158.268 34.529C158.122 34.2873 157.902 34.1182 157.659 34.0216C157.39 33.9249 157 33.8766 156.415 33.8766H154.146V39.1439H155.22V36.9452H155.439C155.683 36.9452 155.854 36.9693 155.976 36.9935C156.098 37.0418 156.195 37.1143 156.293 37.2109C156.39 37.3076 156.585 37.5734 156.854 37.9841L157.634 39.1197H158.927L158.268 38.0808C158.049 37.67 157.854 37.3801 157.707 37.2351ZM156.049 36.0753H155.244V34.7464H156.073C156.512 34.7464 156.781 34.7464 156.854 34.7706C157.024 34.7947 157.171 34.8672 157.268 34.988C157.366 35.1089 157.415 35.2297 157.415 35.423C157.415 35.5921 157.39 35.7129 157.317 35.8095C157.244 35.9062 157.146 35.9787 157.024 36.027C156.878 36.0512 156.561 36.0753 156.049 36.0753Z" fill="#828282"/>
<path d="M167.317 33.8524L165.244 39.1197H166.39L166.829 37.9358H168.951L169.415 39.1197H170.585L168.463 33.8524H167.317ZM167.146 37.0176L167.854 35.0605L168.585 37.0176H167.146Z" fill="#828282"/>
<path d="M178.122 37.6701C178.244 37.3318 178.317 36.9211 178.317 36.462C178.317 35.5922 178.098 34.9398 177.634 34.4565C177.171 33.9733 176.537 33.7317 175.756 33.7317C174.951 33.7317 174.341 33.9733 173.878 34.4565C173.415 34.9398 173.171 35.5922 173.171 36.462C173.171 37.3318 173.415 37.9842 173.854 38.4674C174.317 38.9507 174.951 39.1923 175.78 39.1923C176.195 39.1923 176.585 39.1198 176.927 38.9748C177.366 39.2648 177.61 39.4339 177.634 39.4339C177.78 39.5064 177.951 39.5789 178.098 39.6272L178.488 38.8782C178.171 38.7574 177.902 38.6124 177.634 38.4433C177.854 38.2017 178.024 37.9359 178.122 37.6701ZM177.098 37.2593C177.024 37.4768 176.927 37.6701 176.78 37.8392C176.463 37.5976 176.122 37.4285 175.78 37.3077L175.488 37.9117C175.707 37.9842 175.927 38.105 176.146 38.25C176 38.2983 175.854 38.3225 175.707 38.3225C175.293 38.3225 174.951 38.1775 174.683 37.8634C174.415 37.5493 174.268 37.0902 174.268 36.4862C174.268 35.8821 174.415 35.423 174.683 35.1331C174.951 34.819 175.317 34.674 175.756 34.674C176.195 34.674 176.537 34.819 176.829 35.1331C177.098 35.423 177.244 35.8821 177.244 36.4862C177.195 36.7761 177.171 37.0177 177.098 37.2593Z" fill="#828282"/>
<path d="M184.537 36.7519C184.537 37.1626 184.512 37.4767 184.488 37.6459C184.463 37.815 184.366 37.9841 184.22 38.1049C184.073 38.2257 183.829 38.2982 183.537 38.2982C183.244 38.2982 183 38.2257 182.829 38.1049C182.659 37.9841 182.537 37.7908 182.512 37.5975C182.488 37.4526 182.463 37.1626 182.463 36.7277V33.8766H181.366V36.6794C181.366 37.2593 181.39 37.7183 181.463 38.0083C181.512 38.2016 181.61 38.3949 181.756 38.5882C181.902 38.7815 182.122 38.9265 182.366 39.0473C182.634 39.1681 183.024 39.2164 183.512 39.2164C183.927 39.2164 184.268 39.1681 184.537 39.0473C184.805 38.9506 185 38.8056 185.171 38.6123C185.317 38.4432 185.439 38.2016 185.488 37.96C185.537 37.6942 185.585 37.2593 185.585 36.6311V33.8766H184.537V36.7519Z" fill="#828282"/>
<path d="M189.463 34.0699H188.39V39.3373H189.463V34.0699Z" fill="#828282"/>
</svg>
