<svg width="28" height="28" viewBox="0 0 28 28" fill="none" xmlns="http://www.w3.org/2000/svg">
<path d="M27 13.2778C27.0049 15.1843 26.5595 17.065 25.7 18.7667C24.6808 20.8059 23.114 22.521 21.1752 23.7201C19.2363 24.9191 17.0019 25.5547 14.7222 25.5556C12.8157 25.5605 10.935 25.1151 9.23332 24.2556L1 27L3.74444 18.7667C2.8849 17.065 2.43947 15.1843 2.44444 13.2778C2.44532 10.9981 3.08088 8.7637 4.27992 6.82483C5.47896 4.88595 7.19414 3.31919 9.23332 2.30004C10.935 1.4405 12.8157 0.99507 14.7222 1.00004H15.4444C18.4551 1.16614 21.2988 2.43692 23.4309 4.56905C25.5631 6.70119 26.8339 9.54486 27 12.5556V13.2778Z" stroke="#2F2F2F" stroke-width="2" stroke-linecap="round" stroke-linejoin="round"/>
</svg>
