<svg width="30" height="30" viewBox="0 0 30 30" fill="none" xmlns="http://www.w3.org/2000/svg">
<g clip-path="url(#clip0_1_314)">
<rect width="30" height="30" fill="white"/>
<path d="M30 26.25C30 28.3125 28.3125 30 26.25 30H3.75C1.6875 30 0 28.3125 0 26.25V3.75C0 1.6875 1.6875 0 3.75 0H26.25C28.3125 0 30 1.6875 30 3.75V26.25Z" fill="url(#paint0_linear_1_314)"/>
<path d="M20.1562 26.25H9.84375C6.48375 26.25 3.75 23.5165 3.75 20.1562V9.84375C3.75 6.48375 6.48375 3.75 9.84375 3.75H20.1562C23.5165 3.75 26.25 6.48375 26.25 9.84375V20.1562C26.25 23.5165 23.5165 26.25 20.1562 26.25ZM9.84375 5.625C7.51758 5.625 5.625 7.51758 5.625 9.84375V20.1562C5.625 22.4824 7.51758 24.375 9.84375 24.375H20.1562C22.4824 24.375 24.375 22.4824 24.375 20.1562V9.84375C24.375 7.51758 22.4824 5.625 20.1562 5.625H9.84375Z" fill="white"/>
<path d="M15 20.625C11.8983 20.625 9.375 18.1015 9.375 15C9.375 11.8983 11.8983 9.375 15 9.375C18.1015 9.375 20.625 11.8983 20.625 15C20.625 18.1015 18.1015 20.625 15 20.625ZM15 11.25C12.9323 11.25 11.25 12.9323 11.25 15C11.25 17.0677 12.9323 18.75 15 18.75C17.0677 18.75 18.75 17.0677 18.75 15C18.75 12.9323 17.0677 11.25 15 11.25Z" fill="white"/>
<path d="M20.9766 10.3125C21.6885 10.3125 22.2656 9.73537 22.2656 9.02344C22.2656 8.31151 21.6885 7.73438 20.9766 7.73438C20.2646 7.73438 19.6875 8.31151 19.6875 9.02344C19.6875 9.73537 20.2646 10.3125 20.9766 10.3125Z" fill="white"/>
</g>
<defs>
<linearGradient id="paint0_linear_1_314" x1="3.86433" y1="30.9034" x2="26.1356" y2="-0.903375" gradientUnits="userSpaceOnUse">
<stop stop-color="#FFB900"/>
<stop offset="1" stop-color="#9100EB"/>
</linearGradient>
<clipPath id="clip0_1_314">
<rect width="30" height="30" fill="white"/>
</clipPath>
</defs>
</svg>
