<svg width="30" height="30" viewBox="0 0 30 30" fill="none" xmlns="http://www.w3.org/2000/svg">
<path d="M26.25 30H3.75C1.68 30 0 28.32 0 26.25V3.75C0 1.68 1.68 0 3.75 0H26.25C28.32 0 30 1.68 30 3.75V26.25C30 28.32 28.32 30 26.25 30Z" fill="#EF3F38"/>
<path d="M13.6962 6.93811H12.7411L12.0923 9.41919L11.4194 6.93811H10.4222C10.6204 7.52083 10.8307 8.11557 11.0289 8.69829C11.3353 9.58139 11.5215 10.2482 11.6056 10.6988V13.2579H12.5548V10.6988L13.6962 6.93811ZM16.2314 11.7381V10.086C16.2314 9.58139 16.1473 9.21493 15.9671 8.97463C15.7328 8.65023 15.3963 8.49404 14.9698 8.49404C14.5433 8.49404 14.2129 8.65624 13.9726 8.97463C13.7924 9.21493 13.7083 9.58139 13.7083 10.086V11.7381C13.7083 12.2367 13.7924 12.6091 13.9726 12.8494C14.2069 13.1678 14.5433 13.33 14.9698 13.33C15.3963 13.33 15.7268 13.1678 15.9671 12.8494C16.1413 12.6091 16.2314 12.2367 16.2314 11.7381ZM15.3723 11.8943C15.3723 12.3328 15.2402 12.5491 14.9638 12.5491C14.6875 12.5491 14.5553 12.3328 14.5553 11.8943V9.9118C14.5553 9.47325 14.6875 9.25698 14.9638 9.25698C15.2402 9.25698 15.3723 9.47325 15.3723 9.9118V11.8943ZM19.3853 13.2579V8.54811H18.5322V12.1526C18.34 12.4169 18.1658 12.5551 17.9916 12.5551C17.8774 12.5551 17.8113 12.489 17.7933 12.3568C17.7813 12.3268 17.7813 12.2247 17.7813 12.0264V8.55411H16.9282V12.2787C16.9282 12.6091 16.9583 12.8374 17.0063 12.9816C17.0904 13.2219 17.2827 13.33 17.559 13.33C17.8714 13.33 18.1958 13.1378 18.5322 12.7533V13.264H19.3853V13.2579Z" fill="white"/>
<path d="M16.7135 18.0093C16.5753 18.0093 16.4311 18.0754 16.293 18.2135V21.0551C16.4311 21.1932 16.5753 21.2593 16.7135 21.2593C16.9538 21.2593 17.0799 21.0551 17.0799 20.6285V18.6401C17.0799 18.2255 16.9538 18.0093 16.7135 18.0093Z" fill="white"/>
<path d="M19.8505 18.0093C19.5682 18.0093 19.43 18.2255 19.43 18.6581V19.0906H20.271V18.6581C20.271 18.2255 20.1269 18.0093 19.8505 18.0093Z" fill="white"/>
<path d="M21.91 15.6439C21.7418 14.8989 21.129 14.3523 20.3961 14.2682C18.66 14.0759 16.9058 14.0759 15.1636 14.0759C13.4155 14.0759 11.6613 14.0759 9.93116 14.2682C9.19825 14.3463 8.5915 14.8989 8.41728 15.6439C8.17097 16.7072 8.17097 17.8606 8.17097 18.948C8.17097 20.0353 8.17097 21.1947 8.41728 22.2521C8.58549 22.997 9.19825 23.5437 9.92515 23.6278C11.6613 23.82 13.4155 23.82 15.1636 23.82C16.9118 23.82 18.666 23.82 20.4021 23.6278C21.135 23.5437 21.7418 22.997 21.916 22.2521C22.1623 21.1947 22.1623 20.0353 22.1623 18.948C22.1563 17.8546 22.1563 16.7012 21.91 15.6439ZM12.1599 16.593H11.1447V21.9697H10.2015V16.593H9.21627V15.71H12.1599V16.593ZM14.7131 21.9697H13.866V21.4591C13.5296 21.8436 13.2112 22.0298 12.8988 22.0298C12.6285 22.0298 12.4363 21.9217 12.3522 21.6814C12.3041 21.5372 12.2801 21.3149 12.2801 20.9905V17.3019H13.1271V20.7382C13.1271 20.9364 13.1271 21.0386 13.1331 21.0686C13.1511 21.2008 13.2172 21.2668 13.3314 21.2668C13.4996 21.2668 13.6798 21.1347 13.866 20.8703V17.3079H14.7131V21.9697ZM17.9271 20.57C17.9271 21.0025 17.897 21.3089 17.843 21.5071C17.7288 21.8556 17.5065 22.0298 17.1641 22.0298C16.8638 22.0298 16.5754 21.8616 16.293 21.5131V21.9637H15.446V15.71H16.293V17.7525C16.5634 17.4161 16.8577 17.2479 17.1641 17.2479C17.5005 17.2479 17.7288 17.4221 17.843 17.7765C17.897 17.9627 17.9271 18.2751 17.9271 18.7137V20.57ZM21.111 19.795H19.4229V20.618C19.4229 21.0506 19.5611 21.2668 19.8555 21.2668C20.0597 21.2668 20.1859 21.1527 20.2339 20.9304C20.2399 20.8824 20.252 20.6961 20.252 20.3597H21.111V20.4799C21.111 20.7502 21.099 20.9364 21.093 21.0265C21.063 21.2128 20.9969 21.381 20.8947 21.5312C20.6605 21.8676 20.312 22.0358 19.8735 22.0358C19.4289 22.0358 19.0925 21.8736 18.8522 21.5612C18.672 21.3269 18.5819 20.9605 18.5819 20.4679V18.8338C18.5819 18.3352 18.66 17.9688 18.8402 17.7345C19.0865 17.4161 19.4229 17.2599 19.8555 17.2599C20.276 17.2599 20.6124 17.4161 20.8527 17.7345C21.0269 17.9688 21.117 18.3352 21.117 18.8338V19.795H21.111Z" fill="white"/>
</svg>
